<mxfile host="app.diagrams.net" modified="2024-04-28T15:45:53.075Z" agent="Mozilla/5.0 (Windows NT 10.0; Win64; x64) AppleWebKit/537.36 (KHTML, like Gecko) Chrome/121.0.0.0 Safari/537.36 OPR/107.0.0.0" etag="10olpvds-aswERDX1PV7" version="24.3.1" type="device">
  <diagram name="PÃ¡gina-1" id="aK8BEsrDOj0LzNE8Qz6E">
    <mxGraphModel dx="1393" dy="789" grid="0" gridSize="10" guides="1" tooltips="1" connect="1" arrows="1" fold="1" page="1" pageScale="1" pageWidth="827" pageHeight="1169" math="0" shadow="0">
      <root>
        <mxCell id="0" />
        <mxCell id="1" parent="0" />
        <mxCell id="xGjpHS-1Cyum9NsR7PBa-21" value="CompoStore" style="shape=folder;fontStyle=1;spacingTop=31;tabWidth=40;tabHeight=14;tabPosition=left;html=1;whiteSpace=wrap;verticalAlign=top;" parent="1" vertex="1">
          <mxGeometry x="160" y="170" width="560" height="410" as="geometry" />
        </mxCell>
        <mxCell id="xGjpHS-1Cyum9NsR7PBa-2" value="controllers" style="shape=folder;fontStyle=1;spacingTop=10;tabWidth=40;tabHeight=14;tabPosition=left;html=1;whiteSpace=wrap;" parent="1" vertex="1">
          <mxGeometry x="220" y="246" width="120" height="50" as="geometry" />
        </mxCell>
        <mxCell id="xGjpHS-1Cyum9NsR7PBa-3" value="model" style="shape=folder;fontStyle=1;spacingTop=10;tabWidth=40;tabHeight=14;tabPosition=left;html=1;whiteSpace=wrap;" parent="1" vertex="1">
          <mxGeometry x="500" y="246" width="120" height="50" as="geometry" />
        </mxCell>
        <mxCell id="xGjpHS-1Cyum9NsR7PBa-4" value="exceptions" style="shape=folder;fontStyle=1;spacingTop=10;tabWidth=40;tabHeight=14;tabPosition=left;html=1;whiteSpace=wrap;" parent="1" vertex="1">
          <mxGeometry x="220" y="436" width="120" height="50" as="geometry" />
        </mxCell>
        <mxCell id="xGjpHS-1Cyum9NsR7PBa-5" value="views" style="shape=folder;fontStyle=1;spacingTop=10;tabWidth=40;tabHeight=14;tabPosition=left;html=1;whiteSpace=wrap;" parent="1" vertex="1">
          <mxGeometry x="500" y="436" width="120" height="50" as="geometry" />
        </mxCell>
        <mxCell id="xGjpHS-1Cyum9NsR7PBa-6" value="" style="html=1;verticalAlign=bottom;endArrow=open;dashed=1;endSize=8;edgeStyle=elbowEdgeStyle;elbow=vertical;curved=0;rounded=0;exitX=0.5;exitY=1;exitDx=0;exitDy=0;exitPerimeter=0;entryX=0.5;entryY=0.274;entryDx=0;entryDy=0;entryPerimeter=0;" parent="1" source="xGjpHS-1Cyum9NsR7PBa-2" target="xGjpHS-1Cyum9NsR7PBa-4" edge="1">
          <mxGeometry relative="1" as="geometry">
            <mxPoint x="470" y="360" as="sourcePoint" />
            <mxPoint x="390" y="360" as="targetPoint" />
          </mxGeometry>
        </mxCell>
        <mxCell id="xGjpHS-1Cyum9NsR7PBa-12" value="" style="html=1;verticalAlign=bottom;endArrow=open;dashed=1;endSize=8;edgeStyle=elbowEdgeStyle;elbow=vertical;curved=0;rounded=0;exitX=0.842;exitY=0.996;exitDx=0;exitDy=0;exitPerimeter=0;entryX=0.505;entryY=0.267;entryDx=0;entryDy=0;entryPerimeter=0;" parent="1" source="xGjpHS-1Cyum9NsR7PBa-2" target="xGjpHS-1Cyum9NsR7PBa-5" edge="1">
          <mxGeometry relative="1" as="geometry">
            <mxPoint x="390" y="270" as="sourcePoint" />
            <mxPoint x="390" y="424" as="targetPoint" />
            <Array as="points">
              <mxPoint x="320" y="350" />
              <mxPoint x="480" y="460" />
              <mxPoint x="450" y="330" />
              <mxPoint x="360" y="280" />
              <mxPoint x="340" y="470" />
              <mxPoint x="340" y="440" />
              <mxPoint x="360" y="440" />
              <mxPoint x="380" y="470" />
              <mxPoint x="490" y="470" />
              <mxPoint x="320" y="340" />
            </Array>
          </mxGeometry>
        </mxCell>
        <mxCell id="xGjpHS-1Cyum9NsR7PBa-14" value="" style="html=1;verticalAlign=bottom;endArrow=open;dashed=1;endSize=8;edgeStyle=elbowEdgeStyle;elbow=vertical;curved=0;rounded=0;" parent="1" source="xGjpHS-1Cyum9NsR7PBa-2" target="xGjpHS-1Cyum9NsR7PBa-3" edge="1">
          <mxGeometry relative="1" as="geometry">
            <mxPoint x="290" y="306" as="sourcePoint" />
            <mxPoint x="290" y="460" as="targetPoint" />
            <Array as="points">
              <mxPoint x="430" y="280" />
            </Array>
          </mxGeometry>
        </mxCell>
        <mxCell id="xGjpHS-1Cyum9NsR7PBa-15" value="" style="html=1;verticalAlign=bottom;endArrow=open;dashed=1;endSize=8;edgeStyle=elbowEdgeStyle;elbow=vertical;curved=0;rounded=0;exitX=0.747;exitY=0.276;exitDx=0;exitDy=0;exitPerimeter=0;" parent="1" source="xGjpHS-1Cyum9NsR7PBa-5" target="xGjpHS-1Cyum9NsR7PBa-3" edge="1">
          <mxGeometry relative="1" as="geometry">
            <mxPoint x="350" y="290" as="sourcePoint" />
            <mxPoint x="510" y="290" as="targetPoint" />
            <Array as="points">
              <mxPoint x="590" y="340" />
              <mxPoint x="600" y="370" />
            </Array>
          </mxGeometry>
        </mxCell>
        <mxCell id="xGjpHS-1Cyum9NsR7PBa-18" value="" style="endArrow=none;dashed=1;html=1;rounded=0;exitX=1.001;exitY=0.68;exitDx=0;exitDy=0;exitPerimeter=0;" parent="1" source="xGjpHS-1Cyum9NsR7PBa-3" edge="1">
          <mxGeometry width="50" height="50" relative="1" as="geometry">
            <mxPoint x="610" y="310" as="sourcePoint" />
            <mxPoint x="660" y="280" as="targetPoint" />
          </mxGeometry>
        </mxCell>
        <mxCell id="xGjpHS-1Cyum9NsR7PBa-19" value="" style="html=1;verticalAlign=bottom;endArrow=open;dashed=1;endSize=8;edgeStyle=elbowEdgeStyle;elbow=vertical;curved=0;rounded=0;" parent="1" target="xGjpHS-1Cyum9NsR7PBa-4" edge="1">
          <mxGeometry relative="1" as="geometry">
            <mxPoint x="660" y="280" as="sourcePoint" />
            <mxPoint x="660" y="530" as="targetPoint" />
            <Array as="points">
              <mxPoint x="250" y="550" />
              <mxPoint x="420" y="560" />
              <mxPoint x="250" y="530" />
              <mxPoint x="440" y="530" />
              <mxPoint x="490" y="520" />
              <mxPoint x="500" y="550" />
              <mxPoint x="600" y="350" />
              <mxPoint x="610" y="380" />
            </Array>
          </mxGeometry>
        </mxCell>
        <mxCell id="xGjpHS-1Cyum9NsR7PBa-20" value="" style="html=1;verticalAlign=bottom;endArrow=open;dashed=1;endSize=8;edgeStyle=elbowEdgeStyle;elbow=vertical;curved=0;rounded=0;" parent="1" source="xGjpHS-1Cyum9NsR7PBa-5" edge="1">
          <mxGeometry relative="1" as="geometry">
            <mxPoint x="690" y="280" as="sourcePoint" />
            <mxPoint x="310" y="486" as="targetPoint" />
            <Array as="points">
              <mxPoint x="440" y="510" />
              <mxPoint x="520" y="520" />
              <mxPoint x="530" y="550" />
              <mxPoint x="630" y="350" />
              <mxPoint x="640" y="380" />
            </Array>
          </mxGeometry>
        </mxCell>
      </root>
    </mxGraphModel>
  </diagram>
</mxfile>
